<?xml version="1.0" standalone="no"?>
<!DOCTYPE svg PUBLIC "-//W3C//DTD SVG 20010904//EN"
 "http://www.w3.org/TR/2001/REC-SVG-20010904/DTD/svg10.dtd">
<svg version="1.0" xmlns="http://www.w3.org/2000/svg"
 width="1080.000000pt" height="1080.000000pt" viewBox="0 0 1080.000000 1080.000000"
 preserveAspectRatio="xMidYMid meet">

<g transform="translate(0.000000,1080.000000) scale(0.100000,-0.100000)"
fill="#000000" stroke="none">
<path d="M4744 10781 c-66 -16 -151 -50 -177 -71 -7 -5 -28 -22 -47 -39 l-34
-29 43 -43 c73 -72 89 -144 52 -224 -68 -146 -265 -209 -551 -175 -100 12
-271 39 -280 45 -4 3 -57 13 -116 22 -141 22 -505 22 -639 0 -138 -23 -314
-72 -350 -97 -5 -4 -20 -11 -33 -15 -12 -3 -57 -26 -100 -50 -218 -124 -383
-321 -461 -554 -48 -142 -50 -391 -5 -553 9 -32 15 -61 12 -64 -3 -2 -25 0
-49 5 -65 15 -124 13 -219 -8 -138 -31 -238 -102 -305 -216 -26 -45 -29 -59
-30 -141 0 -76 4 -99 25 -145 33 -72 110 -153 188 -196 34 -19 62 -39 62 -44
0 -14 -77 -47 -126 -54 -44 -8 -175 16 -220 40 -16 8 -35 15 -42 15 -7 0 -23
6 -35 14 -60 39 -251 87 -346 88 -62 0 -211 -28 -248 -47 -15 -8 -33 -15 -40
-15 -22 0 -84 -63 -107 -109 -34 -68 -46 -137 -46 -274 l0 -123 -70 -16 c-39
-9 -96 -33 -128 -52 -55 -34 -237 -194 -229 -202 4 -4 170 65 208 86 11 6 23
4 34 -3 14 -11 4 -26 -95 -127 -113 -117 -151 -173 -131 -193 8 -8 28 6 70 50
71 75 180 159 239 184 35 15 46 16 62 6 28 -17 25 -26 -19 -72 -173 -179 -304
-582 -262 -802 5 -26 15 -77 22 -113 25 -133 88 -298 191 -503 142 -281 159
-319 173 -387 8 -39 15 -104 15 -145 0 -87 -34 -263 -60 -314 -23 -44 -122
-138 -291 -274 l-45 -36 14 -103 14 -103 77 -48 c42 -27 109 -72 149 -100 40
-29 98 -70 130 -92 204 -141 349 -298 461 -500 69 -124 75 -147 34 -119 -170
112 -403 225 -523 254 -25 6 -56 15 -70 20 -33 12 -282 50 -331 50 -42 0 -139
-20 -139 -29 1 -3 23 -23 51 -45 154 -118 335 -409 524 -841 40 -91 95 -227
95 -233 0 -18 129 -266 188 -362 99 -160 226 -339 311 -436 20 -23 61 -72 91
-108 88 -107 364 -372 509 -488 122 -97 361 -268 377 -268 3 0 18 -8 32 -19
75 -52 394 -212 552 -276 36 -14 74 -30 85 -35 40 -18 101 -42 145 -56 25 -8
54 -19 65 -23 33 -14 134 -47 230 -76 50 -14 108 -32 130 -40 53 -18 309 -81
410 -101 44 -9 98 -20 120 -24 23 -5 73 -27 111 -49 39 -23 75 -41 81 -41 5 0
14 -5 20 -11 30 -30 287 -118 448 -153 250 -55 734 -55 1040 -1 200 35 338 65
440 96 39 11 93 26 120 34 61 17 148 45 238 79 38 14 103 30 145 36 126 19
388 72 512 105 168 44 397 115 465 144 11 5 52 21 90 36 39 15 88 35 111 46
23 10 44 19 48 19 11 0 252 122 314 159 29 17 55 31 58 31 2 0 44 26 92 57 48
32 92 60 97 62 6 2 12 7 15 10 3 3 28 21 55 40 157 108 424 353 562 516 147
174 295 402 382 590 24 50 48 101 55 115 8 14 19 43 26 65 7 22 16 45 20 50 4
6 21 57 39 115 17 58 36 119 41 135 5 17 12 48 15 70 3 22 8 49 10 60 3 12 35
45 72 75 234 187 470 420 559 550 73 107 151 245 223 395 34 72 66 137 70 145
16 30 100 246 130 335 44 132 68 223 100 385 91 456 49 815 -138 1184 -59 117
-174 295 -201 311 -13 8 -12 67 0 121 5 22 16 112 25 200 34 356 9 693 -67
894 -75 200 -220 400 -443 612 -77 72 -255 222 -284 237 -13 7 -23 40 -40 123
-57 296 -187 531 -402 732 -184 171 -392 275 -684 341 -105 24 -396 55 -515
55 -116 0 -465 -34 -520 -50 -19 -5 -54 -10 -77 -10 -34 0 -43 4 -43 17 0 21
136 156 204 201 137 92 334 164 494 179 34 3 62 9 62 12 0 29 -373 225 -584
306 -352 136 -822 227 -1086 210 -321 -21 -698 -130 -988 -286 -29 -16 -57
-29 -62 -29 -5 0 -19 33 -31 73 -78 257 -200 388 -404 437 -102 24 -118 24
-211 1z m2125 -366 c74 -8 153 -20 175 -26 22 -6 60 -14 85 -19 54 -9 197 -47
226 -59 11 -5 61 -23 110 -41 110 -38 200 -82 200 -98 0 -6 -47 -48 -105 -92
-342 -265 -618 -521 -713 -663 -91 -135 -361 -430 -578 -633 -64 -59 -233
-196 -304 -246 -129 -90 -326 -171 -447 -185 -96 -10 -99 -12 191 184 199 136
290 203 272 203 -6 0 -75 -21 -151 -47 -127 -42 -142 -45 -156 -31 -14 14 -12
19 28 50 24 20 88 66 143 104 167 113 188 129 193 142 6 18 -29 14 -64 -7 -79
-48 -274 -142 -284 -136 -5 3 -10 13 -10 20 0 12 47 42 260 165 8 5 47 25 85
45 196 102 230 123 234 140 3 15 -2 17 -29 12 -17 -4 -46 -13 -63 -21 -18 -9
-70 -31 -117 -50 -92 -37 -217 -89 -265 -111 -52 -23 -85 -29 -85 -14 1 18 87
86 163 130 33 19 75 44 95 55 46 27 87 50 177 98 226 123 234 128 214 153 -15
17 -35 16 -95 -3 -54 -18 -168 -61 -193 -74 -9 -4 -52 -25 -96 -45 -44 -21
-102 -48 -128 -61 -54 -27 -97 -31 -97 -11 0 34 87 85 435 256 263 129 301
147 354 163 53 17 54 38 1 38 -63 0 -308 -93 -555 -210 -119 -56 -153 -66
-167 -52 -18 18 17 60 98 113 103 69 379 214 559 293 l80 35 -68 1 c-96 0
-216 -48 -656 -262 -101 -49 -146 -67 -154 -59 -27 27 39 92 167 163 32 18 84
48 115 65 31 18 67 38 81 44 13 5 61 28 105 49 158 76 413 170 528 195 34 7
35 23 1 31 -24 6 -151 -24 -194 -46 -9 -4 -31 -11 -50 -15 -19 -4 -48 -13 -65
-20 -16 -7 -64 -24 -105 -38 -120 -41 -358 -126 -445 -159 -81 -30 -102 -39
-187 -77 -58 -26 -78 -27 -78 -2 0 31 60 73 314 216 29 17 60 35 67 41 24 18
342 173 372 180 51 12 44 28 -11 21 -131 -15 -543 -209 -787 -371 -77 -51 -83
-53 -91 -31 -10 25 35 74 135 147 53 38 107 78 121 88 14 10 73 49 132 87 59
37 107 71 108 76 1 26 -155 -39 -310 -131 -19 -11 -63 -35 -98 -54 -35 -18
-68 -39 -74 -45 -6 -7 -15 -13 -20 -13 -6 0 -48 -22 -95 -50 -47 -27 -89 -50
-94 -50 -24 0 -4 42 41 83 53 49 172 144 205 164 255 154 400 216 635 273 206
50 521 64 779 35z m-1804 -434 c17 -29 -178 -114 -368 -162 -64 -16 -259 -39
-332 -39 -135 0 -254 23 -255 50 0 3 91 5 202 5 174 0 219 4 313 24 108 23
293 83 351 114 32 18 80 22 89 8z m-1441 -163 c61 -13 82 -33 49 -45 -10 -4
-40 -23 -68 -43 -92 -66 -239 -156 -326 -199 -96 -48 -180 -62 -243 -41 -47
15 -66 44 -66 100 1 112 88 205 225 239 52 13 352 5 429 -11z m4666 -279 c104
-18 166 -36 298 -84 109 -39 286 -135 391 -212 252 -184 405 -413 424 -638 7
-82 -4 -160 -23 -160 -10 0 -17 24 -26 96 -18 144 -56 243 -141 378 -63 97
-130 171 -228 250 -73 59 -195 141 -210 141 -5 0 -16 6 -24 13 -23 20 -216
103 -291 125 -152 47 -341 61 -655 51 -165 -6 -361 -30 -484 -60 -8 -2 -16 3
-18 12 -3 12 19 21 109 42 62 15 156 33 208 41 52 9 106 17 120 19 14 2 117 5
230 6 168 1 227 -3 320 -20z m-3624 -70 c154 -57 260 -167 309 -318 14 -42 16
-76 13 -156 -4 -92 -8 -108 -42 -177 -22 -44 -55 -92 -82 -118 -45 -43 -45
-43 -25 -64 26 -29 58 -88 83 -154 40 -106 21 -254 -45 -358 -77 -123 -253
-241 -447 -302 -195 -61 -232 -74 -310 -105 -121 -49 -166 -74 -237 -129 -35
-26 -67 -48 -73 -48 -5 0 -10 11 -10 24 0 36 122 144 230 204 69 38 139 72
149 72 6 0 19 4 29 10 9 5 67 26 127 46 255 83 371 166 447 319 65 129 33 271
-91 408 l-25 27 40 43 c96 100 135 181 142 288 4 69 2 83 -23 133 -34 71 -89
127 -157 163 -49 26 -62 28 -168 28 -108 0 -118 -2 -161 -28 -58 -34 -83 -62
-76 -82 5 -11 23 -15 79 -15 117 -1 184 -43 208 -129 11 -43 1 -89 -31 -136
-53 -77 -146 -104 -270 -80 -83 15 -139 49 -176 108 -26 39 -28 49 -28 152 1
101 3 115 30 170 55 112 174 202 298 225 82 14 225 4 293 -21z m-1094 -163
c83 -41 169 -136 197 -217 25 -75 26 -128 3 -189 -21 -55 -46 -60 -50 -10 -18
239 -86 340 -255 381 -128 31 -253 -35 -321 -168 -17 -35 -52 -45 -62 -18 -17
43 99 188 179 224 62 28 74 30 167 27 70 -2 95 -7 142 -30z m4706 -140 c24
-22 64 -66 88 -97 51 -66 136 -226 132 -247 -2 -8 -13 -19 -26 -23 -20 -8 -25
-4 -38 29 -37 93 -97 182 -187 278 -82 86 -83 89 -67 109 15 18 36 8 98 -49z
m-351 14 c71 -36 167 -129 235 -225 45 -64 48 -71 32 -82 -25 -18 -26 -18 -67
36 -56 73 -161 169 -251 228 -44 29 -84 54 -90 56 -5 2 -6 9 -2 16 12 19 73 7
143 -29z m699 -102 c59 -62 102 -129 138 -215 32 -78 33 -93 2 -93 -18 0 -26
7 -31 27 -10 40 -76 150 -140 232 -54 68 -64 101 -32 101 7 0 35 -24 63 -52z
m-5078 -10 c28 -28 0 -93 -36 -86 -8 2 -24 16 -36 31 l-21 29 24 19 c27 22 52
24 69 7z m-693 -43 l40 -18 -95 -9 c-141 -13 -232 -43 -293 -97 -27 -25 -58
-65 -68 -89 -23 -52 -24 -131 -4 -188 7 -22 21 -102 29 -176 15 -123 15 -147
0 -259 -20 -165 -58 -275 -131 -380 -56 -81 -172 -180 -264 -225 -117 -58
-224 -90 -249 -74 -21 13 10 44 79 77 110 53 295 180 339 233 59 70 92 151
122 294 24 118 26 246 5 411 -8 66 -15 159 -15 206 0 76 4 93 31 147 61 124
155 172 329 168 79 -1 115 -6 145 -21z m6059 -41 c76 -76 107 -163 113 -325 6
-137 -2 -171 -37 -162 -18 5 -20 11 -14 53 12 94 -26 290 -77 392 -29 56 -20
78 15 42z m-1647 -34 c241 -21 445 -92 603 -209 72 -54 111 -81 155 -107 30
-18 213 -109 265 -131 90 -39 213 -86 268 -103 24 -7 45 -17 48 -21 10 -17
-161 -161 -275 -233 -73 -45 -270 -146 -285 -146 -6 0 -22 -6 -37 -13 -88 -47
-406 -130 -539 -143 -36 -3 -76 -8 -90 -11 -14 -3 -122 -7 -240 -10 -166 -4
-245 -2 -345 11 -232 30 -412 75 -545 139 -85 41 -71 43 175 28 105 -6 235
-13 290 -16 l100 -4 -55 19 c-30 11 -99 31 -154 45 -94 23 -145 50 -129 66 8
8 223 -11 355 -31 102 -15 150 -13 146 6 -4 23 -187 90 -293 108 -50 9 -80 30
-72 51 8 19 74 20 262 0 308 -32 364 -37 381 -33 35 7 -240 71 -401 93 -171
24 -275 58 -275 91 0 7 12 17 26 20 35 9 660 -15 824 -31 53 -6 54 -5 28 10
-41 23 -124 40 -418 85 -36 5 -119 14 -185 20 -211 17 -268 36 -234 77 13 15
48 16 379 10 304 -5 362 -4 347 7 -41 31 -297 70 -560 85 -102 5 -141 11 -147
22 -6 9 -4 16 5 21 28 16 208 28 440 28 l240 1 -65 24 c-160 58 -347 76 -524
50 -110 -16 -120 -16 -135 0 -15 15 -14 18 8 36 13 10 31 19 40 19 9 0 21 4
27 9 15 15 183 52 274 61 126 11 192 11 317 0z m-4513 -96 c24 -9 23 -114 -1
-114 -46 0 -72 78 -35 106 21 16 17 15 36 8z m-729 -46 c22 -11 50 -31 62 -45
27 -30 68 -112 60 -119 -3 -3 -29 6 -57 20 -41 21 -66 26 -124 26 -65 0 -76
-3 -113 -30 -54 -40 -79 -112 -61 -178 15 -57 61 -97 139 -123 66 -22 68 -24
55 -43 -28 -43 -76 -61 -156 -60 -90 1 -132 17 -195 75 -85 78 -112 174 -81
281 49 169 307 277 471 196z m1917 -95 c128 -169 117 -327 -35 -477 -88 -88
-146 -118 -227 -120 -59 -1 -65 1 -68 20 -3 18 4 22 35 27 97 16 235 114 278
197 26 51 31 145 10 226 -18 71 -47 138 -65 149 -18 11 -11 25 13 25 16 0 34
-15 59 -47z m-706 12 c65 -27 102 -63 134 -130 29 -60 31 -74 31 -168 0 -59
-6 -125 -15 -156 -49 -178 -349 -433 -596 -507 -48 -14 -62 -11 -39 9 157 142
336 328 376 391 30 47 63 160 63 217 0 91 -76 149 -195 149 -69 0 -115 -20
-161 -71 -29 -32 -94 -157 -128 -249 -16 -41 -43 -111 -61 -155 -19 -44 -37
-92 -40 -107 -8 -31 -29 -37 -39 -12 -17 46 9 267 46 382 40 127 78 193 158
273 84 84 127 110 233 139 82 23 172 21 233 -5z m5968 -73 c22 -43 39 -158 32
-218 -10 -83 -43 -164 -68 -164 -19 0 -20 3 -12 53 11 67 11 226 0 300 -8 54
-7 57 13 57 12 0 26 -11 35 -28z m-5455 -206 c15 -18 0 -59 -31 -80 -29 -21
-35 -20 -48 4 -9 17 -7 28 10 55 23 37 50 45 69 21z m6026 -247 c204 -168 389
-444 450 -670 37 -137 50 -319 36 -515 -13 -195 -59 -465 -80 -479 -4 -2 -13
0 -20 4 -10 7 -9 34 9 142 15 93 23 199 27 349 9 345 -15 508 -101 685 -38 78
-106 189 -125 205 -4 3 -29 34 -58 70 -51 65 -115 129 -205 205 -27 22 -48 46
-48 52 0 29 46 9 115 -48z m-253 -96 c39 -41 67 -125 80 -239 13 -113 9 -137
-24 -132 -21 3 -24 10 -29 78 -9 101 -38 207 -74 272 -8 14 -15 31 -15 37 0
21 36 11 62 -16z m-7498 -105 c12 -177 12 -173 -3 -173 -8 0 -25 20 -38 45
-20 37 -24 56 -21 111 3 62 26 119 47 119 4 0 11 -46 15 -102z m-834 44 c59
-43 75 -127 41 -220 -36 -99 -87 -144 -214 -193 -31 -12 -60 -19 -64 -15 -4 4
17 27 45 52 29 26 68 67 87 92 29 37 35 53 35 94 0 40 -5 53 -27 74 -23 22
-35 25 -73 21 -25 -2 -67 -11 -93 -20 l-49 -16 7 26 c13 53 67 101 137 122 45
14 138 4 168 -17z m663 -22 c-1 -8 -7 -35 -12 -60 -6 -25 -10 -87 -11 -137 0
-51 -3 -93 -7 -93 -11 0 -50 87 -63 138 -13 53 1 114 36 149 26 26 61 27 57 3z
m7032 -26 c17 -11 25 -26 25 -45 0 -54 -83 -81 -114 -37 -21 30 -20 54 4 78
24 24 52 25 85 4z m883 -59 c10 -27 15 -80 16 -165 1 -143 -16 -233 -43 -228
-11 3 -15 12 -13 28 8 66 4 282 -6 334 -6 32 -9 63 -6 68 12 19 38 1 52 -37z
m-6451 3 c34 -32 32 -92 -3 -115 -26 -17 -27 -16 -50 11 -28 31 -31 72 -8 104
19 28 32 28 61 0z m-1671 -45 c-3 -32 -8 -93 -11 -135 -4 -43 -10 -78 -15 -78
-8 0 -26 64 -34 121 -6 47 7 105 30 130 29 32 36 23 30 -38z m1896 -1 c17 -65
-74 -191 -189 -260 -118 -71 -196 -93 -404 -113 -99 -10 -146 -10 -225 0 -97
12 -122 20 -110 39 3 5 76 12 163 15 243 10 370 30 461 74 86 42 174 119 234
204 42 61 62 72 70 41z m2563 -48 c97 -22 208 -59 212 -70 1 -5 -32 -31 -75
-59 -106 -69 -231 -191 -299 -294 -100 -149 -160 -295 -219 -531 -46 -187
-132 -313 -379 -555 -152 -148 -185 -189 -205 -251 -18 -56 -28 -62 -36 -20
-10 57 3 125 36 186 107 195 135 289 112 378 -16 59 -56 116 -110 155 -36 26
-53 31 -122 35 l-80 5 6 101 c6 98 -15 274 -35 301 -4 5 -14 26 -21 45 -17 41
-17 42 -71 103 l-42 47 37 0 c58 0 211 38 279 68 34 16 105 64 157 108 201
167 337 234 540 264 74 12 229 3 315 -16z m3841 -62 c42 -29 54 -229 20 -335
-16 -49 -22 -58 -40 -55 -23 3 -24 4 -7 122 6 45 8 121 4 178 -6 94 -2 108 23
90z m-1280 -133 c68 -31 127 -90 165 -167 58 -119 45 -236 -47 -409 -19 -37
-43 -76 -52 -86 -14 -16 -17 -16 -30 -3 -13 13 -13 20 1 58 43 113 47 300 8
376 -63 124 -215 112 -291 -23 -48 -83 -41 -78 -76 -61 -66 33 -152 38 -214
12 -23 -10 -58 -66 -71 -118 -27 -100 19 -191 127 -254 34 -20 44 -32 42 -48
-4 -27 -42 -24 -117 10 -77 35 -137 88 -167 147 -24 46 -26 60 -22 136 7 136
64 241 155 281 50 22 144 27 190 9 24 -9 29 -7 47 18 35 49 98 104 140 123 58
26 151 25 212 -1z m-1918 -82 c88 -74 220 -218 260 -284 58 -96 82 -164 92
-256 5 -60 12 -84 28 -100 l21 -21 11 28 c7 20 6 78 -4 204 -8 98 -12 179 -10
181 10 10 68 -58 102 -119 44 -79 67 -158 116 -403 8 -38 17 -71 20 -74 7 -8
6 122 -3 310 -3 77 -3 141 2 144 10 6 57 -43 85 -88 28 -46 49 -133 57 -239 6
-73 40 -268 48 -276 2 -2 8 83 15 189 7 105 16 195 21 200 11 11 62 -80 91
-163 21 -62 22 -74 16 -265 -3 -110 -2 -206 2 -213 6 -8 17 22 32 85 12 54 31
131 41 172 11 41 19 84 19 96 0 12 6 29 13 39 12 17 14 16 31 -9 33 -50 29
-228 -11 -497 -3 -21 -1 -38 4 -38 13 0 27 31 58 130 68 212 69 213 96 67 10
-55 10 -97 1 -215 -7 -81 -12 -162 -12 -180 0 -30 2 -32 20 -22 42 22 60 82
69 226 5 74 11 137 14 141 18 17 124 -177 171 -312 114 -328 30 -706 -189
-854 -117 -79 -282 -80 -377 -1 -44 36 -62 86 -54 144 14 90 98 140 228 134
107 -4 115 28 25 104 -100 84 -162 108 -279 108 -177 0 -333 -58 -440 -162
-39 -38 -96 -132 -109 -180 -5 -21 -13 -38 -18 -38 -5 0 -11 28 -15 63 -15
146 -80 322 -144 390 -76 81 -179 118 -377 136 -66 6 -138 13 -160 15 -22 2
-77 1 -123 -3 -46 -3 -85 -3 -88 0 -2 4 81 80 184 170 265 231 399 367 408
414 24 130 -67 235 -203 235 -86 0 -266 -50 -348 -96 -36 -20 -43 -21 -71 -9
-39 16 -104 82 -104 105 0 10 21 40 48 67 116 120 338 361 428 463 113 128
169 228 179 319 11 93 14 95 83 38z m414 12 c70 -36 255 -166 408 -287 439
-348 721 -751 904 -1293 57 -171 62 -244 15 -237 -18 2 -26 18 -45 88 -39 140
-129 391 -165 460 -4 8 -30 61 -58 118 -64 128 -61 123 -150 256 -128 192
-298 373 -507 541 -108 87 -152 119 -293 207 -188 118 -198 127 -169 156 15
15 12 16 60 -9z m2945 -106 c22 -54 13 -177 -20 -272 -31 -89 -41 -101 -64
-79 -12 13 -13 20 -6 30 6 7 21 40 32 73 17 48 21 82 21 165 -1 129 -2 120 11
120 5 0 17 -17 26 -37z m-3752 -3 c51 -48 41 -161 -21 -237 -67 -82 -469 -427
-486 -417 -8 5 -4 34 24 154 50 218 106 338 203 436 60 60 79 73 121 82 71 15
131 9 159 -18z m3178 -54 c26 -16 59 -43 73 -62 51 -67 67 -176 39 -269 l-14
-48 55 -60 c78 -84 107 -146 107 -227 0 -98 -47 -178 -134 -232 -34 -21 -170
-49 -212 -44 -71 9 -136 31 -224 74 -92 45 -122 66 -109 79 4 4 26 2 49 -4
215 -58 398 -26 449 77 22 45 23 118 2 159 -19 38 -87 90 -127 98 -38 8 -44
28 -19 63 30 40 62 128 62 170 0 69 -67 133 -155 147 -45 7 -148 -41 -209 -97
-41 -38 -124 -144 -152 -194 -16 -30 -41 -43 -55 -29 -18 18 4 109 47 197 46
94 119 170 199 208 57 28 65 29 170 25 98 -3 115 -7 158 -31z m-6924 -77 c-88
-150 -149 -290 -149 -342 0 -17 2 -18 17 -6 9 8 21 25 27 39 51 112 225 320
267 320 14 0 11 -8 -36 -86 -53 -86 -117 -215 -111 -222 3 -2 16 14 29 35 35
56 102 131 159 181 83 71 89 57 19 -49 -52 -78 -144 -249 -138 -256 3 -2 31
29 63 69 112 140 209 249 212 239 2 -5 -17 -61 -42 -124 -25 -63 -46 -117 -46
-121 0 -9 33 31 145 173 92 118 109 113 45 -12 -135 -264 -271 -442 -532 -695
-37 -35 -95 -102 -129 -149 -34 -46 -66 -80 -70 -76 -8 8 -18 136 -38 473 -13
206 1 333 44 420 53 106 75 133 156 187 46 30 120 62 131 56 4 -2 -6 -26 -23
-54z m1782 10 c87 -44 131 -140 107 -233 -7 -27 -17 -51 -23 -53 -5 -1 -18 17
-28 41 -37 91 -107 125 -205 100 -93 -24 -138 -67 -148 -146 -14 -104 20 -184
94 -215 19 -8 69 -14 117 -14 90 -1 147 17 197 64 38 35 103 128 144 205 21
40 41 72 45 72 19 0 33 -84 33 -195 0 -151 -16 -208 -112 -381 -29 -53 -187
-205 -265 -257 -88 -57 -204 -117 -228 -117 -8 0 -20 -5 -27 -12 -15 -15 -13
-28 -16 137 -3 165 -21 236 -84 335 -92 145 -117 228 -110 359 6 101 34 167
99 232 96 96 298 135 410 78z m-2671 -31 c89 0 207 14 246 29 24 9 16 -9 -52
-127 -72 -125 -69 -120 -146 -226 -83 -112 -175 -199 -254 -239 -55 -28 -66
-30 -174 -30 -96 0 -125 4 -175 24 -33 12 -69 30 -79 39 -17 15 -18 15 -10 1
39 -69 126 -152 207 -198 87 -49 156 -65 272 -65 157 1 290 41 452 136 45 26
86 48 91 48 17 0 24 -141 12 -235 -14 -117 -34 -181 -88 -285 -134 -259 -389
-411 -718 -427 l-121 -6 -44 64 c-136 199 -318 526 -397 714 -70 168 -85 251
-79 430 4 135 15 199 54 323 19 57 33 64 56 29 32 -50 114 -119 176 -149 62
-31 73 -33 171 -33 83 0 113 4 145 19 66 32 117 71 184 138 l63 64 56 -19 c39
-13 85 -19 152 -19z m-1164 -75 c-3 -27 -9 -142 -12 -258 -9 -290 -1 -329 112
-560 29 -60 64 -128 76 -150 314 -563 366 -684 375 -867 5 -95 3 -117 -18
-180 -26 -82 -68 -159 -130 -239 -40 -52 -87 -98 -100 -99 -3 0 -9 22 -12 49
-12 98 -66 167 -151 192 -25 7 -46 16 -46 20 0 3 9 35 21 70 15 45 23 100 26
184 7 172 -18 291 -89 424 -187 347 -276 590 -298 812 -23 236 41 435 194 606
21 24 43 43 48 43 6 0 8 -19 4 -47z m2916 -290 c-26 -86 -36 -157 -22 -148 5
3 10 12 10 18 0 23 53 112 88 150 44 45 64 48 56 10 -8 -40 11 -140 36 -193
11 -25 43 -76 70 -114 197 -278 159 -456 -130 -614 -97 -54 -231 -68 -326 -36
-113 38 -228 175 -264 312 -29 111 -6 274 45 322 l24 22 5 -33 c3 -19 7 -53 9
-75 3 -23 13 -54 23 -70 l19 -28 6 89 c3 50 14 114 25 144 18 51 89 141 111
141 8 0 10 -33 7 -102 l-4 -103 14 60 c25 110 58 185 114 254 38 47 95 87 100
71 2 -6 -5 -40 -16 -77z m5178 -233 c25 -13 42 -67 29 -91 -15 -28 -83 -26
-103 3 -19 27 -21 69 -4 86 15 15 53 16 78 2z m-2885 -294 c26 -75 79 -103
172 -92 73 9 277 76 300 100 27 26 133 -17 152 -62 11 -26 10 -36 -8 -70 -19
-38 -140 -164 -179 -187 -9 -5 -63 -44 -119 -85 -56 -41 -145 -102 -198 -135
-125 -78 -253 -175 -286 -217 -91 -117 -152 -233 -209 -398 -34 -98 -32 -260
3 -260 8 0 46 25 86 56 l72 56 43 -36 c71 -58 206 -187 206 -197 0 -5 -48 -58
-107 -117 -110 -109 -155 -172 -201 -284 -37 -89 -43 -235 -13 -335 38 -126
111 -245 209 -341 22 -21 29 -33 20 -36 -7 -3 -119 -7 -248 -9 -129 -3 -242
-7 -250 -11 -13 -5 -15 17 -16 171 0 141 -4 199 -21 278 -34 159 -43 267 -43
501 0 203 4 275 31 559 31 332 103 584 210 737 11 14 19 29 19 32 0 4 38 57
83 119 99 133 255 309 269 305 6 -2 16 -21 23 -42z m3453 -42 c129 -35 250
-121 291 -207 24 -50 27 -123 7 -171 -20 -47 -79 -111 -127 -136 -42 -21 -168
-52 -181 -44 -4 3 -19 -21 -34 -51 -44 -90 -111 -145 -205 -171 -69 -18 -89
-18 -157 2 -82 24 -151 97 -182 193 -19 59 -22 86 -18 168 5 120 41 243 70
243 27 0 31 -22 19 -94 -36 -205 121 -402 262 -330 39 21 56 43 82 107 l20 50
70 17 c39 10 81 22 95 27 37 16 78 58 86 88 9 37 -2 95 -24 125 -26 34 -104
93 -169 125 -60 31 -66 37 -57 59 8 21 77 21 152 0z m1152 -249 c70 -75 153
-257 200 -440 55 -216 56 -607 1 -880 -41 -202 -146 -474 -270 -700 -18 -32
-24 -42 -92 -150 -68 -109 -199 -283 -271 -360 -36 -38 -79 -87 -97 -107 -33
-38 -198 -183 -263 -232 -34 -25 -39 -26 -63 -13 -31 16 -33 14 70 92 85 64
308 293 406 415 83 104 227 319 282 420 84 157 100 189 128 255 17 39 34 79
39 90 33 77 83 267 99 380 35 242 35 381 0 635 -28 213 -107 435 -190 541 -33
40 -38 53 -28 65 16 19 22 18 49 -11z m-7696 -96 c-1 -110 -67 -292 -148 -411
-35 -52 -18 -47 35 10 61 65 155 207 213 325 27 53 52 97 55 97 3 0 17 -19 30
-43 37 -64 125 -170 213 -258 l80 -78 -41 -50 c-101 -120 -242 -362 -336 -576
-88 -201 -135 -454 -153 -835 l-7 -135 -47 70 c-75 114 -344 371 -554 530 -43
33 -84 64 -91 70 -7 5 -36 27 -65 48 -265 189 -385 287 -559 455 -64 61 -66
66 -58 96 12 42 10 145 -5 244 -6 45 -10 85 -7 87 2 3 37 5 77 5 80 0 204 20
309 51 176 52 350 146 485 263 53 46 64 33 30 -34 -75 -146 -232 -293 -510
-477 -71 -47 -65 -54 23 -23 166 58 401 202 621 378 49 39 93 69 97 66 20 -12
-40 -119 -122 -220 -50 -61 -136 -146 -264 -259 l-30 -27 33 6 c53 9 171 73
246 133 64 52 111 98 186 183 63 70 218 315 237 373 3 10 11 16 17 14 7 -2 11
-31 10 -78z m7220 30 c56 -66 11 -133 -68 -103 -24 9 -57 69 -50 90 12 34 26
44 59 44 25 0 40 -8 59 -31z m-5644 -239 c0 -42 -49 -174 -99 -270 -57 -107
-251 -294 -458 -442 -62 -44 -139 -105 -172 -135 -63 -57 -163 -196 -183 -254
-6 -19 -15 -39 -19 -45 -5 -6 -14 -45 -20 -87 l-11 -76 -62 -48 c-139 -108
-310 -324 -423 -532 -29 -54 -40 -68 -49 -58 -13 14 -41 188 -49 302 -8 132
16 363 56 523 22 90 93 310 108 339 5 10 25 52 43 93 40 92 128 246 183 320
22 30 45 61 50 69 6 7 30 35 55 61 l45 48 60 -13 c172 -39 465 9 729 118 16 7
65 31 110 54 84 43 106 50 106 33z m5937 -27 c87 -90 156 -207 195 -331 38
-121 25 -302 -30 -409 -19 -39 -30 -42 -36 -10 -15 79 -61 266 -74 297 l-9 25
-6 -30 c-4 -16 -9 -57 -12 -90 -11 -118 -29 -214 -38 -208 -14 8 -43 81 -67
169 -26 96 -36 238 -21 319 6 33 18 105 26 160 19 120 24 145 30 145 3 0 22
-17 42 -37z m-500 -249 c197 -174 231 -211 275 -298 28 -55 31 -70 32 -158 1
-115 -10 -138 -46 -93 -31 39 -68 95 -68 101 0 3 -16 25 -35 48 -19 24 -35 49
-35 56 0 7 -3 11 -6 7 -3 -3 6 -36 21 -74 51 -127 83 -230 75 -243 -6 -10 -24
-2 -72 32 -34 26 -77 61 -94 80 -67 70 -142 219 -159 314 -4 21 -11 44 -15 49
-4 6 -13 44 -20 85 -7 41 -19 100 -26 130 -14 56 -19 120 -8 120 3 0 85 -70
181 -156z m-3366 6 c64 -12 184 -70 224 -108 75 -71 124 -147 157 -244 17 -52
21 -88 21 -206 1 -172 -4 -182 -66 -126 -71 64 -99 83 -167 116 -73 35 -226
77 -282 78 -26 0 -47 9 -78 35 -87 73 -176 95 -387 95 -108 0 -133 3 -133 14
0 36 160 202 250 259 57 35 166 82 210 90 50 9 199 7 251 -3z m2242 -327 c8
-105 -2 -268 -24 -378 -66 -334 -219 -547 -494 -686 -111 -57 -166 -77 -269
-99 -257 -57 -452 21 -548 218 -31 63 -32 73 -32 177 0 98 3 116 26 165 55
116 162 193 297 212 121 17 184 1 258 -67 119 -108 124 -243 12 -338 -82 -71
-166 -92 -244 -62 -25 9 -45 20 -45 23 0 4 -9 13 -20 19 -18 12 -18 11 2 -25
68 -118 185 -164 348 -137 121 21 290 120 393 230 126 134 243 422 308 758 6
31 15 57 19 57 4 0 10 -30 13 -67z m-7294 -134 c32 -66 45 -146 44 -284 0
-106 -5 -150 -27 -236 -14 -59 -26 -116 -26 -128 0 -11 -7 -56 -15 -98 -16
-88 -45 -306 -52 -400 -3 -38 -10 -63 -17 -63 -6 1 -22 24 -35 53 -46 98 -151
222 -320 377 -25 23 -166 132 -200 156 l-31 21 48 33 c51 34 90 88 113 154 11
30 24 43 60 62 107 54 225 160 352 316 34 42 68 77 74 77 7 1 21 -17 32 -40z
m8327 -172 c120 -37 204 -98 204 -147 0 -37 -29 -34 -234 25 -32 9 -60 15 -62
13 -5 -6 144 -91 198 -114 27 -10 48 -22 48 -26 0 -15 -56 -22 -165 -22 -110
0 -182 14 -265 51 -106 48 -340 200 -340 222 0 9 23 14 120 25 19 2 121 3 225
1 169 -3 199 -6 271 -28z m-8081 -62 c44 -31 105 -72 135 -93 129 -88 371
-260 450 -319 300 -225 492 -487 551 -752 19 -84 25 -259 11 -309 -10 -33 -25
-25 -40 22 -7 23 -20 55 -28 73 -8 17 -14 37 -15 45 0 7 -9 31 -20 53 -22 46
-22 43 2 -98 10 -60 10 -80 1 -89 -16 -16 -42 0 -60 36 -8 15 -41 105 -73 199
l-60 172 6 -90 c3 -49 11 -128 16 -174 11 -90 5 -109 -27 -87 -22 15 -26 28
-109 311 -28 97 -42 136 -83 230 -45 104 -48 94 -16 -45 33 -141 67 -381 57
-407 -10 -26 -19 -11 -47 80 -65 211 -207 571 -214 542 -2 -8 4 -43 13 -77 80
-297 135 -582 117 -600 -5 -5 -25 36 -46 89 -47 124 -72 186 -98 243 -71 157
-127 264 -135 256 -2 -2 11 -55 30 -117 76 -248 126 -445 127 -504 0 -40 -12
-24 -50 65 -17 41 -44 102 -60 135 -16 33 -42 92 -59 130 -39 90 -70 153 -70
140 -1 -15 8 -48 78 -292 11 -38 33 -112 49 -166 22 -74 26 -99 17 -107 -17
-14 -45 21 -88 110 -30 64 -51 108 -124 270 -20 44 -15 -8 8 -86 11 -38 32
-107 46 -154 14 -47 32 -105 40 -129 23 -73 28 -131 11 -131 -17 0 -86 115
-149 247 -24 51 -47 93 -50 93 -6 0 16 -114 40 -210 26 -104 61 -254 61 -261
0 -36 -61 41 -142 180 -21 35 -38 65 -38 67 0 2 -9 23 -19 47 -93 201 -119
392 -86 627 30 213 45 440 45 663 0 125 3 227 8 227 4 0 43 -25 87 -55z m5010
-22 c50 -23 123 -69 152 -96 18 -16 20 -23 11 -40 -20 -39 -134 -172 -213
-252 -118 -119 -145 -141 -230 -186 l-76 -41 -97 4 c-53 2 -106 9 -117 16 -11
6 -38 19 -60 29 -47 21 -116 86 -141 134 -27 50 -25 141 4 208 28 63 33 71 92
129 67 66 90 75 128 52 47 -29 117 -124 173 -237 28 -57 54 -103 58 -103 3 1
34 44 69 96 67 102 89 163 99 275 l6 67 51 -18 c28 -10 69 -26 91 -37z m-6080
-7 c-8 -62 14 -124 58 -165 15 -13 24 -28 21 -32 -7 -12 -103 -11 -164 2 -58
12 -67 24 -76 101 -5 41 -3 57 8 66 17 14 139 79 151 81 5 0 5 -23 2 -53z
m3979 -377 c4 -283 14 -361 60 -478 28 -70 83 -173 128 -240 16 -24 27 -49 24
-56 -2 -7 -21 -18 -41 -25 -52 -17 -238 -114 -373 -195 -161 -96 -391 -281
-618 -497 -50 -49 -96 -88 -102 -88 -6 0 -9 14 -7 33 3 17 12 91 22 162 9 72
17 195 18 275 0 170 -11 226 -90 465 -50 149 -63 200 -86 330 -10 59 -24 285
-17 285 2 0 29 -12 59 -26 132 -65 338 -85 464 -45 139 44 318 161 488 317 33
30 61 53 63 51 2 -2 6 -122 8 -268z m5841 200 c15 -29 15 -32 -1 -50 -19 -21
-73 -26 -92 -7 -31 31 1 88 49 88 22 0 32 -7 44 -31z m-545 -124 c0 -14 -5
-25 -12 -25 -13 0 -145 -88 -155 -102 -3 -6 2 -8 13 -4 154 46 214 55 214 32
0 -22 -79 -105 -134 -139 -86 -55 -156 -79 -346 -122 -63 -14 -135 -30 -160
-35 -49 -11 -210 -40 -222 -40 -37 0 113 157 244 255 188 142 331 204 476 205
81 0 82 0 82 -25z m270 -195 l25 -19 -52 -53 c-51 -53 -103 -123 -103 -140 0
-5 33 19 73 53 114 97 117 99 128 99 17 0 1 -66 -31 -131 -54 -106 -159 -211
-370 -367 -45 -34 -157 -102 -167 -102 -9 0 4 72 36 198 23 87 85 229 127 288
64 91 131 141 234 175 69 23 70 23 100 -1z m-6781 -296 c34 -102 76 -218 92
-257 73 -173 101 -349 96 -587 -6 -222 -23 -319 -87 -480 -26 -66 -37 -81 -56
-73 -17 6 -18 88 -4 238 5 55 12 127 15 160 l6 60 -16 -40 c-9 -22 -22 -59
-29 -82 -19 -58 -40 -103 -48 -103 -4 0 -12 9 -18 20 -13 24 -6 82 21 189 10
41 19 80 19 85 -1 13 -69 -155 -70 -170 0 -6 -7 -17 -16 -25 -24 -20 -34 6
-28 71 10 111 25 266 29 295 l4 30 -14 -27 c-9 -15 -31 -74 -50 -130 -19 -57
-39 -112 -44 -123 -5 -11 -13 -32 -20 -47 -6 -16 -15 -28 -21 -28 -17 0 -11
73 15 206 22 112 32 204 18 164 -3 -8 -28 -62 -56 -120 -57 -117 -67 -114 -43
13 44 229 48 300 12 187 -23 -71 -84 -239 -92 -252 -14 -23 -35 67 -41 178 -9
172 30 360 100 479 26 44 76 119 100 150 4 5 40 54 78 108 39 53 74 97 78 97
4 0 36 -84 70 -186z m3511 147 c0 -5 22 -34 50 -64 47 -51 137 -107 173 -107
46 0 48 -12 9 -54 -144 -157 -135 -380 21 -482 88 -58 142 -69 334 -69 201 0
195 4 138 -100 -52 -98 -120 -191 -228 -315 -65 -73 -270 -280 -279 -280 -4 0
-8 28 -9 63 -2 215 -92 424 -243 565 -134 125 -466 308 -723 397 -41 15 -50
22 -41 32 6 7 19 13 29 13 19 0 97 23 229 67 41 14 125 50 187 80 100 48 122
64 220 158 99 96 133 120 133 96z m1516 -221 c49 -24 94 -86 101 -140 l5 -37
72 -6 c117 -10 189 -45 237 -116 20 -30 24 -48 24 -111 0 -66 -4 -82 -34 -138
-41 -75 -98 -129 -184 -171 -65 -31 -183 -59 -211 -48 -21 8 -20 36 2 43 140
47 281 190 282 288 0 48 -44 111 -90 130 -52 21 -69 20 -123 -3 l-45 -19 -7
36 c-11 59 -44 125 -72 146 -59 44 -167 29 -233 -32 -34 -33 -42 -49 -55 -108
-8 -38 -15 -84 -15 -102 0 -39 -15 -72 -34 -72 -19 0 -46 93 -46 161 0 127 94
264 209 305 58 21 168 17 217 -6z m-7806 -55 c52 -7 191 -48 255 -75 100 -43
181 -84 243 -123 214 -138 414 -363 551 -621 23 -43 40 -80 38 -83 -3 -2 -61
51 -129 120 -175 176 -304 276 -167 129 88 -94 172 -215 222 -322 65 -139 59
-154 -22 -60 -125 143 -351 350 -383 350 -13 0 -4 -12 70 -91 151 -161 302
-385 302 -449 0 -11 -1 -20 -2 -20 -2 0 -61 58 -133 128 -148 145 -265 231
-265 194 0 -16 27 -50 139 -177 59 -66 182 -237 194 -267 12 -33 -14 -19 -129
68 -63 48 -116 85 -118 83 -2 -2 30 -40 71 -84 118 -125 254 -307 240 -321 -7
-7 -89 37 -146 79 -48 35 -42 15 16 -50 123 -140 248 -332 229 -351 -7 -6 -35
21 -121 119 -36 40 -254 314 -275 346 -8 11 -40 56 -71 100 -106 148 -186 292
-280 498 -25 56 -99 241 -99 248 0 5 -6 23 -14 40 -8 18 -27 63 -42 102 -35
90 -230 421 -281 478 -14 15 -15 20 -3 27 7 4 23 5 34 0 12 -4 46 -11 76 -15z
m8689 -141 c25 -32 27 -67 5 -88 -19 -20 -34 -20 -62 0 -39 27 -22 114 23 114
7 0 23 -12 34 -26z m-3496 -148 c40 -8 101 -20 137 -26 163 -29 372 -109 518
-199 246 -152 402 -357 451 -595 27 -129 27 -190 1 -216 -33 -33 -40 -24 -40
56 0 81 -25 193 -62 284 -107 258 -420 487 -793 580 -254 64 -637 63 -901 -1
-232 -56 -544 -187 -696 -290 -32 -21 -62 -39 -67 -39 -10 0 -21 24 -21 44 0
18 114 89 255 160 268 135 464 199 750 245 89 15 389 12 468 -3z m31 -235 c85
-45 133 -102 161 -192 17 -54 17 -56 -4 -104 -13 -31 -34 -59 -56 -73 -113
-78 -284 -30 -285 78 0 82 68 150 152 150 46 0 49 1 43 23 -8 29 -79 93 -135
123 l-45 23 56 1 c44 0 70 -7 113 -29z m-749 -106 c77 -32 125 -106 125 -191
0 -51 -5 -67 -29 -101 -82 -114 -247 -87 -276 44 -8 41 10 100 36 113 29 16
23 27 -28 50 -35 15 -69 21 -130 22 -46 0 -81 4 -78 8 8 14 134 60 188 69 61
11 149 5 192 -14z m2674 -59 l23 -25 -42 -78 c-140 -264 -436 -551 -800 -779
-119 -74 -378 -202 -515 -254 -33 -12 -73 -28 -90 -35 -16 -7 -97 -34 -180
-60 -82 -26 -157 -50 -165 -53 -8 -3 -57 -15 -108 -27 -85 -20 -93 -20 -107
-5 -8 9 -15 21 -15 26 0 5 42 20 93 33 218 56 475 142 595 200 316 152 526
276 702 415 107 85 290 266 374 371 68 85 179 246 192 280 8 21 17 19 43 -9z
m331 -145 c15 -30 12 -56 -9 -75 -46 -42 -119 11 -93 68 10 22 18 26 51 26 30
0 43 -5 51 -19z m818 -50 c93 -35 162 -98 187 -170 49 -144 -31 -258 -238
-340 -20 -8 -27 -16 -23 -27 3 -8 2 -45 -4 -82 -8 -62 -12 -70 -51 -104 -102
-88 -253 -90 -379 -4 -101 69 -149 153 -157 274 -7 128 27 139 66 23 45 -133
131 -201 258 -204 98 -3 131 19 160 103 12 36 22 80 22 98 1 28 4 32 30 32 58
0 94 14 132 50 35 33 39 42 39 86 0 29 -7 59 -16 72 -42 61 -173 107 -339 119
-91 7 -100 10 -100 28 0 21 56 45 150 65 64 14 203 4 263 -19z m-2359 -48
c113 -128 101 -342 -26 -469 -57 -58 -90 -70 -172 -62 -129 13 -191 158 -104
240 70 65 127 70 195 17 20 -16 41 -29 47 -29 17 0 40 43 45 85 6 50 -12 171
-30 207 -16 31 -18 58 -5 58 5 0 28 -21 50 -47z m-2469 -15 c0 -5 -22 -35 -49
-66 -107 -124 -246 -357 -292 -489 -58 -164 -63 -198 -63 -393 0 -154 4 -202
23 -290 49 -230 137 -439 258 -617 35 -51 63 -99 63 -106 0 -6 -10 -18 -22
-26 -20 -13 -24 -11 -51 20 -108 130 -206 332 -280 579 -56 188 -71 553 -31
735 46 204 187 453 359 628 46 48 59 56 71 46 8 -6 14 -16 14 -21z m5486 -68
c11 -11 -5 -115 -31 -205 -8 -27 -19 -66 -24 -85 -32 -114 -117 -301 -199
-436 -117 -191 -320 -413 -528 -575 -111 -87 -356 -259 -369 -259 -4 0 -21
-10 -38 -22 -18 -13 -54 -35 -82 -50 -79 -42 -373 -188 -380 -188 -4 0 -43
-16 -88 -36 -80 -36 -106 -45 -257 -96 -144 -49 -399 -114 -535 -137 -281 -48
-310 -50 -318 -20 -6 22 23 39 71 39 15 0 45 5 67 11 22 5 81 18 130 29 213
45 414 100 607 165 198 67 220 75 255 90 17 8 34 15 37 15 4 0 39 15 79 34 40
18 83 37 97 41 37 12 224 116 320 178 416 271 668 500 873 794 69 99 208 415
232 528 4 17 13 50 20 75 7 25 16 62 20 83 6 36 21 47 41 27z m-3936 -57 c221
-47 363 -180 392 -368 21 -132 -22 -313 -76 -323 -16 -3 -18 0 -13 25 54 251
21 392 -119 501 -70 55 -110 76 -191 100 -154 47 -312 15 -482 -98 -68 -45
-105 -91 -137 -170 -44 -110 -24 -291 42 -381 31 -43 163 -178 187 -190 19
-11 23 -44 7 -54 -17 -11 -119 54 -176 113 -106 108 -144 208 -144 374 0 105
1 112 35 181 53 108 122 176 238 234 160 81 260 93 437 56z m-2979 -27 c19 -8
54 -22 79 -32 131 -55 286 -196 394 -359 121 -184 144 -233 117 -249 -9 -6
-51 38 -81 84 -34 51 -105 147 -134 179 -144 160 -216 222 -310 266 -45 21
-78 29 -147 33 -209 12 -366 -65 -472 -231 -20 -31 -37 -64 -37 -72 0 -7 -4
-16 -9 -19 -5 -3 -17 -38 -26 -77 -43 -176 10 -388 150 -593 47 -69 72 -95
185 -197 176 -159 276 -233 449 -335 52 -31 87 -58 93 -73 10 -27 4 -51 -12
-51 -16 0 -200 116 -349 221 -96 67 -240 191 -333 285 -54 54 -98 101 -98 105
0 3 -9 17 -21 30 -29 34 -87 134 -106 183 -86 230 -63 468 63 658 44 66 149
171 189 189 11 5 27 13 35 19 29 18 93 44 129 51 52 12 213 2 252 -15z m1911
-56 c103 -15 174 -65 233 -166 19 -32 26 -59 26 -99 1 -47 -3 -60 -31 -95 -49
-61 -119 -93 -210 -94 -65 -1 -79 2 -107 23 -51 38 -67 82 -60 168 6 85 7 85
-93 52 -135 -44 -239 -145 -290 -282 -14 -37 -28 -67 -32 -67 -13 0 -9 113 7
173 18 69 57 148 98 199 66 82 219 174 312 188 71 11 73 11 147 0z m1088 -88
c208 -100 259 -305 124 -507 -44 -67 -100 -114 -173 -144 -48 -20 -67 -23
-160 -19 -79 4 -118 10 -153 26 -63 28 -128 89 -158 149 -22 43 -25 60 -25
158 1 91 4 117 22 154 26 53 102 134 158 167 105 61 257 68 365 16z m1870 -57
c-43 -70 -54 -101 -53 -152 0 -60 19 -94 66 -124 43 -27 125 -22 168 10 16 12
34 21 39 19 5 -2 22 -28 37 -58 35 -69 79 -90 144 -71 95 29 137 117 125 263
-4 43 -9 84 -12 93 -12 32 26 14 58 -27 78 -99 98 -211 57 -320 -47 -128 -158
-201 -277 -183 -59 9 -90 25 -136 70 -32 31 -39 34 -59 24 -12 -7 -54 -12 -92
-12 -106 1 -184 45 -228 128 -28 55 -26 137 6 207 35 75 125 164 170 167 5 1
-1 -15 -13 -34z m-4831 -76 c141 -45 216 -102 330 -252 47 -62 117 -153 155
-201 64 -82 68 -89 52 -104 -15 -16 -19 -14 -49 19 -17 19 -52 59 -77 89 -25
30 -49 60 -55 67 -5 6 -39 50 -75 96 -72 93 -128 141 -210 180 -131 62 -219
71 -347 36 -132 -37 -188 -90 -219 -209 -15 -60 -15 -69 2 -150 11 -54 34
-118 63 -175 40 -80 61 -105 186 -230 238 -238 434 -381 745 -544 25 -13 51
-28 58 -34 18 -14 15 -57 -4 -57 -15 0 -96 38 -189 89 -27 15 -70 39 -95 52
-144 79 -356 227 -467 324 -243 214 -373 435 -373 636 0 138 77 271 191 329
34 18 124 44 184 53 44 7 151 -1 194 -14z m815 -257 c2 -4 -2 -32 -11 -62 -11
-42 -13 -91 -9 -205 4 -145 13 -209 57 -400 24 -110 28 -147 13 -152 -23 -8
-85 191 -109 350 -20 130 -23 403 -5 437 19 36 51 53 64 32z m-683 -91 c24
-17 51 -36 60 -43 21 -17 49 -72 49 -96 0 -32 -27 -85 -57 -114 -65 -62 -196
-51 -234 19 -7 13 -18 23 -24 23 -21 0 -38 -84 -30 -145 3 -31 3 -55 -3 -55
-12 0 -59 96 -74 153 -22 86 15 173 103 240 55 42 63 45 120 46 34 1 56 -6 90
-28z m1829 -194 c126 -35 255 -140 323 -263 42 -75 59 -157 36 -166 -24 -9
-51 7 -137 82 l-82 71 20 -43 c12 -24 28 -56 36 -72 13 -26 13 -31 -1 -45 -14
-14 -22 -9 -83 52 -37 37 -70 67 -73 67 -3 0 5 -23 18 -51 14 -28 22 -53 19
-56 -3 -3 -32 15 -65 41 -34 25 -61 44 -61 41 0 -3 16 -27 35 -54 19 -26 35
-51 35 -55 0 -12 -56 -6 -78 10 -36 25 -35 11 1 -37 73 -95 56 -112 -52 -53
l-66 35 68 -65 c38 -36 67 -71 65 -78 -7 -21 -44 -20 -87 2 -23 11 -41 19 -41
17 0 -2 27 -32 61 -66 37 -38 58 -68 55 -77 -7 -19 -22 -17 -73 6 -24 10 -43
17 -43 15 0 -2 29 -33 65 -69 36 -36 65 -69 65 -74 0 -5 -7 -15 -15 -22 -12
-10 -23 -10 -58 4 -72 27 -75 14 -5 -30 49 -31 90 -73 82 -85 -8 -14 -47 -11
-87 6 -59 25 -55 18 31 -46 80 -60 101 -92 68 -105 -28 -11 -142 18 -207 52
-164 86 -267 229 -325 448 -63 238 -8 444 151 565 67 51 103 69 188 91 85 22
155 24 217 7z m3940 -156 c0 -49 -179 -107 -305 -99 -74 5 -105 18 -105 44 0
11 21 14 93 14 83 0 276 36 295 54 11 12 22 5 22 -13z m-1721 -81 c14 -84 14
-190 0 -266 -23 -131 -132 -292 -208 -309 -39 -8 -61 6 -42 28 15 18 56 140
65 192 l7 40 -35 -60 c-44 -77 -112 -155 -136 -155 -55 0 -27 185 44 284 18
26 84 103 147 172 63 69 118 133 123 141 13 24 24 3 35 -67z m588 74 c32 -9
47 -58 28 -94 -19 -37 -49 -46 -80 -26 -32 21 -34 77 -5 106 22 22 25 23 57
14z m-1194 -129 c37 -44 72 -86 78 -93 6 -7 22 -38 36 -69 35 -77 44 -229 16
-283 -31 -60 -48 -51 -77 43 -14 46 -26 90 -27 98 -1 8 -4 3 -8 -11 -5 -14 -9
-74 -10 -135 -1 -60 -6 -114 -11 -119 -12 -12 -54 25 -87 77 -56 89 -73 192
-53 327 6 36 14 109 20 163 5 54 12 102 15 107 7 11 20 -2 108 -105z m-3018
84 c59 -15 115 -75 115 -123 0 -70 -95 -134 -168 -114 -18 5 -36 7 -39 4 -8
-8 -33 -118 -33 -148 0 -16 -4 -28 -9 -28 -5 0 -18 12 -28 28 -64 93 -77 215
-30 289 36 57 87 94 140 102 5 0 28 -4 52 -10z m4827 -165 c61 -16 144 -15
226 2 24 5 32 3 32 -8 0 -21 -50 -46 -106 -53 -44 -6 -167 6 -216 21 -18 5
-24 34 -11 47 8 9 1 10 75 -9z m-79 -133 c88 -1 97 -3 97 -20 0 -39 -142 -53
-271 -26 -40 9 -75 17 -77 20 -2 2 -2 15 2 28 l6 24 72 -13 c40 -7 117 -13
171 -13z m-2437 -5 c143 -19 206 -36 300 -82 98 -48 194 -138 219 -206 16 -45
15 -78 -2 -78 -5 0 -19 10 -33 23 -55 49 -162 117 -185 117 -4 0 15 -23 41
-50 96 -102 130 -178 76 -173 -37 5 -132 52 -199 99 -62 44 -118 99 -188 184
-20 25 -61 71 -91 103 -46 48 -64 77 -51 77 2 0 52 -7 113 -14z m1804 -91 c0
-28 -81 -187 -123 -243 -22 -30 -62 -69 -87 -88 -25 -19 -50 -38 -55 -42 -25
-21 -169 -62 -216 -62 -54 0 -89 13 -89 33 0 7 34 37 74 67 41 30 73 56 71 58
-2 2 -31 -5 -64 -17 -69 -24 -129 -27 -137 -8 -6 18 39 98 73 128 70 62 152
95 383 156 30 8 69 18 85 23 50 14 85 12 85 -5z m400 -52 c36 -2 84 0 106 5
54 12 75 1 51 -26 -36 -39 -149 -54 -229 -30 -42 12 -54 27 -44 54 4 12 13 14
29 9 12 -3 51 -9 87 -12z m-4090 -80 c58 -115 109 -195 209 -325 50 -65 52
-71 36 -86 -15 -16 -19 -14 -55 25 -35 40 -147 203 -184 268 -9 17 -30 53 -46
80 -34 59 -40 105 -12 105 13 0 29 -21 52 -67z m1453 -17 c8 -8 20 -28 27 -46
12 -28 11 -33 -10 -55 -60 -64 -170 17 -117 86 23 30 76 38 100 15z m775 -263
c121 -60 134 -127 20 -104 -55 11 -102 14 -153 11 -23 -1 -14 -5 35 -18 67
-18 131 -49 137 -67 2 -6 -3 -20 -11 -30 -12 -17 -29 -21 -108 -24 -110 -4
-207 11 -303 47 -98 36 -235 120 -235 143 0 11 85 35 180 50 41 6 93 15 115
19 22 4 87 8 145 9 102 1 107 0 178 -36z m572 -43 c41 -41 9 -104 -54 -104
-65 0 -81 54 -30 102 31 27 58 28 84 2z m-2185 -200 c8 -13 139 -76 213 -101
146 -51 298 -85 492 -110 95 -12 438 -12 550 1 232 26 493 79 740 150 105 30
115 30 115 1 0 -21 -10 -27 -110 -58 -111 -34 -182 -52 -310 -79 -356 -74
-402 -79 -735 -79 -263 0 -308 2 -420 23 -68 12 -138 27 -155 32 -141 43 -212
69 -285 106 -106 54 -146 85 -137 107 7 19 32 23 42 7z"/>
<path d="M1620 3791 c0 -6 4 -13 10 -16 6 -3 7 1 4 9 -7 18 -14 21 -14 7z"/>
</g>
</svg>
