<?xml version="1.0" standalone="no"?>
<!DOCTYPE svg PUBLIC "-//W3C//DTD SVG 20010904//EN"
 "http://www.w3.org/TR/2001/REC-SVG-20010904/DTD/svg10.dtd">
<svg version="1.0" xmlns="http://www.w3.org/2000/svg"
 width="854.000000pt" height="793.000000pt" viewBox="0 0 854.000000 793.000000"
 preserveAspectRatio="xMidYMid meet">

<g transform="translate(0.000000,793.000000) scale(0.100000,-0.100000)"
fill="#000000" stroke="none">
<path d="M6615 7913 c-33 -7 -100 -17 -150 -23 -49 -6 -112 -15 -140 -21 -27
-5 -84 -16 -125 -23 -120 -22 -323 -82 -790 -236 -80 -26 -185 -59 -235 -73
-49 -14 -146 -42 -215 -62 -69 -19 -141 -40 -160 -45 -19 -5 -53 -14 -75 -20
-266 -73 -246 -70 -479 -71 -141 -1 -186 -4 -212 -16 -36 -18 -49 -39 -35 -57
4 -6 11 -27 15 -47 4 -21 13 -42 21 -49 37 -31 2 -54 -59 -40 -38 8 -83 3 -92
-12 -3 -5 9 -32 27 -60 37 -57 120 -123 207 -164 31 -14 76 -42 99 -60 23 -19
49 -34 58 -34 24 0 87 -35 114 -63 l23 -26 -20 -26 c-11 -14 -24 -40 -28 -58
-3 -18 -15 -48 -25 -68 -10 -20 -30 -78 -44 -129 -14 -51 -42 -123 -62 -159
-64 -118 -108 -205 -132 -261 -13 -30 -39 -88 -57 -129 -60 -131 -126 -401
-149 -601 -8 -74 -21 -157 -30 -185 -34 -110 -55 -240 -55 -344 0 -156 43
-369 96 -474 14 -27 24 -58 22 -70 -3 -22 -71 -77 -125 -102 -18 -9 -33 -20
-33 -25 0 -6 -6 -10 -14 -10 -8 0 -43 -26 -77 -57 -35 -32 -60 -51 -57 -42 3
9 2 22 -3 30 -7 12 -16 10 -56 -11 -26 -14 -55 -34 -63 -45 -8 -11 -34 -40
-58 -65 -59 -62 -150 -215 -179 -302 -27 -82 -69 -275 -77 -358 -16 -160 -42
-551 -63 -943 -8 -137 10 -368 68 -895 23 -214 128 -691 164 -747 7 -11 16
-39 19 -61 7 -41 68 -124 91 -124 7 0 24 -17 38 -38 35 -53 176 -201 208 -217
14 -8 66 -27 115 -44 110 -37 215 -38 274 -3 19 12 42 25 50 29 41 18 90 55
85 63 -3 4 8 19 24 32 28 22 30 26 21 63 -14 59 -12 105 3 105 7 0 26 -14 43
-31 51 -54 146 -78 174 -44 9 11 22 14 42 10 20 -5 30 -2 34 9 4 9 18 16 33
16 15 0 31 3 34 7 4 3 35 7 70 8 34 0 67 4 73 7 12 8 89 22 274 49 74 11 144
22 155 24 11 3 34 7 50 11 17 3 41 11 54 17 17 8 107 12 295 12 280 0 389 -7
411 -25 9 -8 15 -8 20 0 4 7 19 8 38 4 36 -8 115 -7 193 2 49 6 52 5 58 -20 4
-15 2 -35 -4 -46 -5 -10 -10 -28 -10 -39 0 -24 44 -114 64 -130 8 -7 22 -34
31 -61 21 -63 36 -75 74 -62 25 9 32 7 51 -15 19 -22 26 -24 58 -17 20 4 48 8
62 9 38 4 143 -16 160 -29 8 -7 25 -11 38 -10 17 1 22 -4 22 -23 0 -18 4 -23
15 -19 8 3 22 9 30 12 14 6 20 -10 16 -43 -3 -23 41 -14 70 15 15 15 34 32 41
39 7 6 29 30 47 52 31 37 39 40 67 35 18 -3 35 -1 38 5 9 14 66 15 66 1 0 -25
42 -5 121 59 86 70 125 114 114 131 -4 6 1 13 9 16 8 3 20 22 27 42 6 21 27
54 45 75 19 20 34 42 34 47 0 6 7 10 15 10 8 0 15 7 15 15 0 8 5 16 10 16 6 1
16 2 23 3 6 1 12 15 13 31 0 17 1 35 2 40 3 15 59 75 70 75 5 0 26 35 46 77
20 43 41 85 46 93 37 62 93 191 98 224 2 23 13 58 24 79 10 21 18 46 17 55 -2
15 28 89 41 102 3 3 15 43 27 90 38 149 51 194 73 245 12 27 30 88 41 135 19
79 61 184 79 195 5 3 12 20 15 38 4 17 16 57 26 89 26 79 77 261 95 337 25
112 61 202 93 233 41 40 55 112 43 210 -15 112 -15 273 -1 296 10 15 6 37 -19
123 -31 107 -48 201 -44 254 4 46 -51 163 -110 234 -50 61 -197 219 -234 251
-9 8 -47 43 -84 76 -37 34 -96 75 -131 92 -35 16 -116 54 -179 83 l-115 53
-120 1 c-66 0 -142 -3 -170 -7 -27 -4 -92 -12 -143 -17 -53 -6 -111 -18 -135
-30 -113 -53 -151 -58 -547 -76 -196 -9 -271 -17 -525 -56 -38 -6 -88 -13
-110 -15 -22 -2 -59 -8 -82 -14 -58 -14 -113 -26 -208 -45 -80 -17 -314 -88
-347 -106 -10 -5 -23 -9 -29 -9 -7 0 -44 -15 -83 -34 -86 -41 -143 -63 -214
-81 -29 -7 -58 -17 -65 -22 -7 -5 -32 -16 -57 -23 -25 -8 -99 -37 -165 -65
-120 -52 -292 -115 -330 -120 -11 -2 -49 -13 -85 -25 -99 -33 -232 -58 -256
-50 -11 5 -36 10 -55 12 l-34 3 -7 -55 c-11 -78 -5 -91 54 -125 28 -16 59 -37
68 -45 25 -23 82 -64 112 -79 21 -11 31 -11 41 -3 10 9 18 8 33 -3 10 -8 26
-15 34 -15 8 0 62 -30 120 -67 202 -127 271 -153 414 -156 95 -2 97 -3 115
-32 10 -17 28 -39 40 -49 11 -11 21 -24 21 -31 0 -7 14 -27 31 -44 29 -31 30
-35 25 -94 -3 -34 -8 -111 -11 -172 -9 -175 -3 -164 -115 -195 -25 -7 -54 -16
-65 -20 -26 -11 -111 -38 -155 -51 -19 -5 -44 -14 -55 -19 -11 -5 -40 -14 -65
-20 -25 -6 -56 -19 -70 -28 -26 -18 -108 -45 -170 -57 -19 -3 -44 -10 -55 -15
-56 -24 -195 -63 -247 -70 -72 -8 -70 -11 -88 130 -25 201 -88 592 -111 690
-11 45 -14 96 -23 370 -12 364 38 551 188 700 30 30 59 55 64 55 5 0 32 -28
61 -63 67 -81 130 -116 234 -132 123 -20 287 -14 311 10 5 5 18 10 27 10 9 0
23 7 30 17 8 9 28 22 44 30 42 20 132 86 154 114 38 50 81 147 95 212 7 37 15
70 17 71 12 11 150 65 179 71 19 4 101 29 183 56 106 36 152 47 165 40 12 -6
28 -4 52 6 19 9 52 18 73 19 21 2 68 17 103 34 36 16 72 30 80 30 8 0 14 5 14
11 0 5 8 9 18 8 26 -3 69 10 147 46 39 18 87 38 108 45 20 8 37 18 37 22 0 5
6 8 13 6 6 -2 26 7 44 20 17 12 40 22 50 22 11 0 35 11 54 25 19 15 54 35 79
47 25 11 54 25 65 31 11 6 34 18 50 27 47 25 115 72 115 79 0 4 17 17 38 29
79 46 115 97 142 201 7 25 23 61 36 80 13 20 24 41 24 47 0 17 50 127 65 144
8 9 19 38 25 65 14 63 13 375 -1 430 -14 53 -58 154 -80 183 -22 28 -85 72
-104 72 -8 0 -31 22 -50 49 -37 51 -82 79 -137 86 -18 2 -60 11 -93 19 -55 14
-94 14 -155 -1 -14 -3 -83 -5 -153 -4 -70 1 -164 -3 -207 -9 -113 -15 -128
-17 -190 -25 -158 -19 -451 -91 -555 -136 -11 -5 -45 -18 -75 -29 -123 -47
-333 -173 -427 -257 -23 -21 -56 -49 -74 -63 -18 -14 -55 -46 -83 -72 -46 -43
-52 -46 -64 -31 -13 18 -16 89 -15 283 1 119 29 259 86 440 13 41 29 94 36
118 12 43 23 48 81 44 8 -1 31 -2 50 -3 19 -1 80 -8 135 -15 304 -40 642 -31
785 21 48 17 206 56 216 53 5 -1 24 6 43 16 42 23 141 57 141 49 0 -3 6 -1 13
5 7 6 22 11 32 11 44 0 109 11 114 19 7 11 45 32 69 38 77 20 207 46 252 50
30 3 64 9 75 14 11 4 65 23 120 42 55 18 106 39 113 46 7 6 20 12 28 12 8 0
14 10 14 23 0 19 13 29 68 55 37 17 81 34 99 37 41 8 90 63 99 112 3 21 15 53
25 70 56 99 100 326 65 339 -8 3 -17 21 -21 41 -12 63 -28 84 -96 124 -79 46
-123 56 -285 65 -66 3 -121 7 -124 8 -3 1 -32 -4 -65 -11z m-2139 -1218 c4 -8
3 -23 -1 -32 -6 -16 -8 -15 -20 7 -8 14 -14 28 -15 33 0 14 31 7 36 -8z m1074
-1025 c13 -8 11 -13 -11 -32 -14 -13 -32 -34 -39 -48 -18 -34 -74 -104 -137
-170 -28 -30 -62 -68 -75 -85 -50 -66 -174 -213 -214 -252 -23 -23 -46 -49
-51 -56 -4 -8 -30 -33 -58 -56 -27 -23 -64 -56 -82 -73 l-31 -30 -32 43 c-17
24 -29 50 -26 59 2 8 16 49 30 90 14 41 33 101 42 133 21 78 101 194 167 246
30 22 59 41 64 41 6 0 13 6 16 13 5 13 140 83 217 113 25 9 50 21 57 26 12 10
118 45 138 47 6 0 17 -4 25 -9z m1520 -1974 c43 -15 169 -114 194 -153 14 -21
29 -56 35 -78 17 -70 20 -197 6 -276 -8 -41 -21 -112 -30 -159 -15 -85 -57
-189 -95 -237 -25 -32 -26 -53 -1 -53 37 0 34 -27 -29 -250 -12 -41 -30 -111
-41 -155 -10 -44 -24 -90 -29 -103 -10 -24 -27 -96 -60 -267 -30 -150 -105
-386 -171 -536 -16 -36 -29 -70 -29 -76 0 -10 -38 -85 -87 -172 -31 -56 -43
-58 -106 -18 -114 73 -166 87 -332 91 -66 2 -163 7 -215 12 -92 8 -139 8 -318
1 -110 -4 -116 2 -101 104 5 41 10 81 10 89 0 15 17 164 24 208 5 32 -5 54
-21 48 -11 -4 -14 8 -13 57 0 47 2 57 9 40 12 -30 30 -29 30 0 0 21 7 25 62
35 34 6 64 16 68 22 4 6 16 12 28 15 11 2 30 8 41 14 11 6 28 11 39 11 11 0
25 6 31 14 7 8 36 19 64 25 88 18 207 54 207 63 0 4 6 8 14 8 7 0 19 7 26 15
7 8 37 22 66 31 29 8 75 27 101 41 26 14 64 26 83 27 57 4 60 34 16 139 -21
48 -35 91 -31 97 3 6 -3 22 -14 36 -13 16 -21 41 -21 63 0 30 -6 42 -30 59
-16 12 -36 22 -44 22 -8 0 -26 12 -40 28 -113 122 -122 130 -175 141 -29 6
-61 15 -71 21 -10 5 -73 12 -141 15 -99 5 -126 9 -136 22 -11 14 -10 21 2 37
8 12 18 28 21 36 3 8 9 22 14 30 67 115 98 217 71 234 -6 4 -11 2 -11 -5 0 -8
-4 -8 -15 1 -8 7 -15 17 -15 22 0 14 -108 149 -133 168 -12 8 -48 29 -81 45
-58 29 -82 60 -54 70 7 2 27 10 43 16 17 7 42 14 57 16 15 2 48 15 73 28 25
14 51 25 57 25 10 0 19 3 154 63 44 20 94 38 110 42 25 5 173 49 214 64 78 27
180 36 430 36 146 -1 276 -5 290 -9z m-1230 -1736 c0 -5 -5 -10 -11 -10 -5 0
-7 5 -4 10 3 6 8 10 11 10 2 0 4 -4 4 -10z m-70 -52 c-25 -21 -35 -25 -41 -16
-5 8 -2 15 9 19 10 4 24 14 31 23 7 9 18 13 23 9 6 -3 -4 -18 -22 -35z m-1530
-201 c0 3 17 -8 38 -23 34 -26 44 -29 117 -29 44 1 116 4 160 8 134 12 234 16
239 9 5 -10 -31 -196 -53 -272 -11 -36 -27 -123 -37 -195 -9 -71 -22 -136 -29
-144 -22 -23 -143 -40 -260 -36 -60 2 -118 6 -128 10 -10 4 -24 30 -33 64 -9
31 -27 89 -40 130 -13 40 -24 80 -24 88 0 8 -11 33 -24 56 -14 23 -49 105 -79
182 -31 77 -67 166 -81 198 -15 32 -24 62 -21 67 3 4 61 -20 130 -55 69 -35
125 -61 125 -58z"/>
<path d="M2385 7813 c-88 -4 -109 -11 -250 -90 -33 -18 -96 -52 -140 -74 -70
-36 -99 -61 -237 -203 -87 -88 -158 -165 -158 -171 1 -17 23 -39 60 -59 48
-26 70 -46 70 -65 1 -18 52 -43 125 -60 130 -31 180 -50 191 -75 10 -22 7 -30
-33 -78 -25 -29 -111 -123 -193 -208 -156 -164 -221 -237 -248 -279 -9 -14
-30 -40 -47 -57 -16 -17 -52 -60 -78 -95 -138 -183 -195 -262 -208 -287 -13
-25 -72 -114 -184 -278 -23 -34 -57 -81 -77 -105 -46 -56 -141 -208 -176 -281
-15 -31 -34 -58 -42 -61 -8 -2 -34 -31 -57 -65 -48 -70 -59 -83 -133 -157 -38
-38 -65 -57 -90 -62 -19 -3 -48 -12 -65 -19 -19 -7 -63 -10 -120 -8 -230 10
-275 10 -286 3 -17 -10 -5 -103 20 -154 11 -22 34 -84 51 -138 49 -159 102
-225 256 -315 39 -23 79 -52 88 -66 9 -14 43 -43 75 -66 45 -30 70 -40 99 -40
22 0 53 -7 68 -15 52 -27 159 -18 279 24 17 5 59 20 95 32 86 28 209 124 282
219 15 19 56 66 92 104 62 66 65 67 76 46 10 -18 7 -33 -16 -88 -16 -37 -36
-81 -45 -98 -9 -17 -32 -66 -52 -110 -80 -181 -139 -304 -161 -334 -13 -18
-27 -42 -79 -139 -22 -42 -56 -103 -76 -136 -44 -73 -84 -156 -146 -300 -70
-166 -118 -264 -135 -279 -8 -8 -44 -30 -80 -49 -68 -36 -69 -37 -96 -104 -16
-38 -22 -43 -50 -43 -26 0 -33 -4 -37 -27 -3 -15 0 -37 5 -49 8 -16 6 -35 -6
-70 -8 -25 -13 -57 -10 -69 4 -17 -6 -38 -39 -81 -29 -39 -47 -74 -52 -103 -4
-24 -14 -59 -22 -78 -8 -19 -15 -62 -15 -96 -1 -34 -7 -71 -14 -82 -41 -68
-19 -136 73 -231 32 -33 74 -87 93 -118 38 -63 91 -116 117 -116 9 0 32 -12
51 -26 34 -26 37 -27 176 -26 216 3 251 14 392 131 6 5 22 11 35 13 13 1 42
20 64 40 22 21 44 38 48 38 11 0 33 19 86 73 40 41 49 47 59 34 13 -15 19
-259 13 -492 -5 -197 -1 -415 9 -459 5 -22 16 -70 24 -106 9 -36 20 -108 26
-160 11 -103 45 -188 97 -246 73 -81 92 -108 99 -137 3 -18 15 -44 25 -59 11
-14 19 -30 19 -35 0 -4 15 -24 33 -44 17 -19 45 -54 61 -78 36 -51 105 -101
141 -101 17 0 40 -14 69 -45 25 -25 50 -45 58 -46 7 0 36 -2 63 -3 28 -1 62
-5 76 -9 23 -8 26 -5 35 30 l9 38 55 0 55 0 7 66 c3 36 18 95 33 130 16 35 30
87 32 114 3 28 9 54 14 59 5 6 9 17 9 26 0 9 9 25 20 35 11 10 20 26 20 35 0
9 5 21 10 26 6 6 11 53 13 105 2 85 -1 102 -31 183 -19 48 -37 109 -41 135 -5
25 -23 96 -41 156 -29 97 -33 127 -37 255 -2 80 -8 149 -13 154 -4 4 -6 14 -3
22 2 7 -2 37 -10 66 -9 29 -18 110 -21 180 -4 70 -8 133 -11 140 -2 7 -9 114
-15 238 -5 124 -13 261 -18 305 -9 105 -5 347 8 410 20 100 43 252 50 335 20
230 51 491 64 538 12 45 29 80 95 198 5 10 26 55 46 99 19 44 40 87 45 95 6 8
17 29 26 45 8 17 23 44 34 60 11 17 34 59 52 95 17 36 49 92 70 124 21 33 38
63 38 67 0 4 11 19 24 32 13 13 31 49 40 80 9 32 21 57 26 57 6 0 10 9 10 19
0 12 11 25 27 33 15 7 29 22 31 33 6 36 52 126 67 131 8 4 15 12 15 19 0 7 9
24 20 38 11 14 23 39 26 56 4 16 12 32 19 35 8 3 21 22 31 43 10 21 28 54 40
73 12 20 25 51 29 70 4 19 13 42 19 50 7 8 24 36 39 61 26 46 26 47 10 88 -14
37 -14 43 -1 59 25 28 36 73 25 103 -9 22 -6 32 11 54 12 15 22 35 22 44 0 9
10 32 22 51 68 108 88 144 83 148 -6 6 -26 -15 -75 -78 -19 -25 -49 -61 -67
-80 -18 -19 -35 -42 -38 -51 -3 -9 -17 -20 -30 -23 -16 -4 -25 -14 -25 -25 0
-10 -6 -21 -14 -24 -22 -9 -25 37 -5 64 10 13 19 32 19 42 0 10 9 27 20 39 25
27 26 58 3 58 -16 0 -50 -36 -233 -243 -30 -34 -60 -61 -67 -59 -8 2 -13 -6
-13 -18 l0 -22 -32 20 c-18 11 -44 23 -58 27 -14 4 -45 25 -69 46 -24 22 -48
39 -52 39 -5 0 -18 19 -30 43 -21 41 -61 81 -104 102 -11 6 -33 36 -50 67 -16
31 -39 65 -49 77 -20 22 -46 28 -46 11 0 -23 -41 9 -131 101 -100 103 -129
118 -163 84 -11 -12 -29 -14 -72 -10 -32 3 -61 8 -67 12 -13 8 -99 14 -118 8
-15 -5 -102 -113 -142 -175 -9 -14 -21 -50 -28 -80 -13 -59 -19 -68 -64 -89
-16 -7 -38 -17 -47 -22 -10 -5 -28 -9 -41 -9 -12 0 -39 -11 -59 -25 -20 -14
-44 -25 -52 -25 -8 0 -16 -3 -18 -7 -6 -14 -67 -53 -81 -53 -8 0 -20 -7 -27
-15 -7 -8 -17 -15 -22 -15 -6 0 -30 -13 -55 -30 -24 -16 -46 -30 -49 -30 -3 0
-10 -5 -17 -10 -70 -60 -174 -130 -191 -128 -26 4 -31 22 -11 41 8 9 15 18 15
22 0 3 10 16 22 29 25 25 81 91 127 149 29 37 107 117 115 117 2 0 76 72 164
160 88 88 166 160 174 160 7 0 18 8 25 18 6 11 26 27 45 36 18 9 49 26 68 37
19 12 53 22 76 24 44 3 89 25 157 78 26 20 45 28 63 24 14 -2 45 0 70 5 32 7
49 6 59 -2 9 -7 38 -9 86 -5 39 4 94 3 121 0 47 -7 51 -10 90 -69 46 -70 135
-135 196 -143 31 -4 41 0 61 21 14 14 29 26 34 26 6 0 36 24 67 53 32 28 79
68 106 87 27 19 58 43 69 53 13 12 28 16 45 12 26 -6 29 -4 112 71 14 13 31
24 38 24 21 0 60 53 60 81 0 15 8 35 18 45 19 19 21 50 21 286 1 117 -3 149
-25 225 -14 48 -35 104 -48 123 -13 19 -38 61 -57 93 -21 37 -74 97 -141 159
-108 102 -145 130 -189 143 -25 8 -71 26 -129 53 -19 8 -41 17 -49 18 -8 1
-17 6 -20 11 -15 21 -64 32 -118 27 -32 -3 -80 0 -108 6 -68 15 -78 16 -170
13z m-865 -3183 c0 -5 -2 -10 -4 -10 -3 0 -8 5 -11 10 -3 6 -1 10 4 10 6 0 11
-4 11 -10z"/>
</g>
</svg>
